{
	"patcher" : 	{
		"fileversion" : 1,
		"appversion" : 		{
			"major" : 8,
			"minor" : 5,
			"revision" : 1,
			"architecture" : "x64",
			"modernui" : 1
		}
,
		"classnamespace" : "box",
		"rect" : [ 0.0, 0.0, 640.0, 480.0 ],
		"bglocked" : 0,
		"openinpresentation" : 0,
		"default_fontsize" : 12.0,
		"default_fontface" : 0,
		"default_fontname" : "Arial",
		"gridonopen" : 1,
		"gridsize" : [ 15.0, 15.0 ],
		"gridsnaponopen" : 1,
		"objectsnaponopen" : 1,
		"statusbarvisible" : 2,
		"toolbarvisible" : 1,
		"lefttoolbarpinned" : 0,
		"toptoolbarpinned" : 0,
		"righttoolbarpinned" : 0,
		"bottomtoolbarpinned" : 0,
		"toolbars_unpinned_last_save" : 0,
		"tallnewobj" : 0,
		"boxanimatetime" : 200,
		"enablehscroll" : 1,
		"enablevscroll" : 1,
		"devicewidth" : 0.0,
		"description" : "",
		"digest" : "",
		"tags" : "",
		"style" : "",
		"subpatcher_template" : "",
		"assistshowspatchername" : 0,
		"boxes" : [ 			{
				"box" : 				{
					"id" : "obj-3",
					"local" : 1,
					"maxclass" : "ezdac~",
					"numinlets" : 2,
					"numoutlets" : 0,
					"patching_rect" : [ 1077.0, 414.0, 45.0, 45.0 ]
				}

			}
, 			{
				"box" : 				{
					"id" : "obj-12",
					"lastchannelcount" : 0,
					"maxclass" : "live.gain~",
					"numinlets" : 2,
					"numoutlets" : 5,
					"outlettype" : [ "signal", "signal", "", "float", "list" ],
					"parameter_enable" : 1,
					"patching_rect" : [ 1077.0, 251.0, 48.0, 136.0 ],
					"saved_attribute_attributes" : 					{
						"valueof" : 						{
							"parameter_initial" : [ -70.0 ],
							"parameter_initial_enable" : 1,
							"parameter_longname" : "live.gain~[4]",
							"parameter_mmax" : 6.0,
							"parameter_mmin" : -70.0,
							"parameter_shortname" : "live.gain~[3]",
							"parameter_type" : 0,
							"parameter_unitstyle" : 4
						}

					}
,
					"varname" : "live.gain~[1]"
				}

			}
, 			{
				"box" : 				{
					"id" : "obj-1",
					"local" : 1,
					"maxclass" : "ezdac~",
					"numinlets" : 2,
					"numoutlets" : 0,
					"patching_rect" : [ 964.0, 414.0, 45.0, 45.0 ]
				}

			}
, 			{
				"box" : 				{
					"id" : "obj-4",
					"lastchannelcount" : 0,
					"maxclass" : "live.gain~",
					"numinlets" : 2,
					"numoutlets" : 5,
					"outlettype" : [ "signal", "signal", "", "float", "list" ],
					"parameter_enable" : 1,
					"patching_rect" : [ 964.0, 251.0, 48.0, 136.0 ],
					"saved_attribute_attributes" : 					{
						"valueof" : 						{
							"parameter_initial" : [ -70.0 ],
							"parameter_initial_enable" : 1,
							"parameter_longname" : "live.gain~[3]",
							"parameter_mmax" : 6.0,
							"parameter_mmin" : -70.0,
							"parameter_shortname" : "live.gain~[3]",
							"parameter_type" : 0,
							"parameter_unitstyle" : 4
						}

					}
,
					"varname" : "live.gain~"
				}

			}
, 			{
				"box" : 				{
					"id" : "obj-49",
					"maxclass" : "comment",
					"numinlets" : 1,
					"numoutlets" : 0,
					"patching_rect" : [ 470.0, 83.0, 150.0, 20.0 ],
					"text" : "RNBO 1"
				}

			}
, 			{
				"box" : 				{
					"id" : "obj-48",
					"maxclass" : "comment",
					"numinlets" : 1,
					"numoutlets" : 0,
					"patching_rect" : [ 675.0, 83.0, 150.0, 20.0 ],
					"text" : "RNBO 2"
				}

			}
, 			{
				"box" : 				{
					"autosave" : 1,
					"id" : "obj-46",
					"inletInfo" : 					{
						"IOInfo" : [ 							{
								"type" : "event",
								"index" : 1,
								"tag" : "in1",
								"comment" : ""
							}
, 							{
								"type" : "event",
								"index" : 2,
								"tag" : "in2",
								"comment" : ""
							}
, 							{
								"type" : "event",
								"index" : 3,
								"tag" : "in3",
								"comment" : ""
							}
, 							{
								"type" : "event",
								"index" : 4,
								"tag" : "in4",
								"comment" : ""
							}
, 							{
								"type" : "event",
								"index" : 5,
								"tag" : "in5",
								"comment" : ""
							}
, 							{
								"type" : "event",
								"index" : 6,
								"tag" : "in6",
								"comment" : ""
							}
 ]
					}
,
					"maxclass" : "newobj",
					"numinlets" : 6,
					"numoutlets" : 1,
					"outletInfo" : 					{
						"IOInfo" : [  ]
					}
,
					"outlettype" : [ "list" ],
					"patcher" : 					{
						"fileversion" : 1,
						"appversion" : 						{
							"major" : 8,
							"minor" : 5,
							"revision" : 1,
							"architecture" : "x64",
							"modernui" : 1
						}
,
						"classnamespace" : "rnbo",
						"rect" : [ 0.0, -26.0, 640.0, 506.0 ],
						"bglocked" : 0,
						"openinpresentation" : 0,
						"default_fontsize" : 12.0,
						"default_fontface" : 0,
						"default_fontname" : "Lato",
						"gridonopen" : 1,
						"gridsize" : [ 15.0, 15.0 ],
						"gridsnaponopen" : 1,
						"objectsnaponopen" : 1,
						"statusbarvisible" : 2,
						"toolbarvisible" : 1,
						"lefttoolbarpinned" : 0,
						"toptoolbarpinned" : 0,
						"righttoolbarpinned" : 0,
						"bottomtoolbarpinned" : 0,
						"toolbars_unpinned_last_save" : 0,
						"tallnewobj" : 0,
						"boxanimatetime" : 200,
						"enablehscroll" : 1,
						"enablevscroll" : 1,
						"devicewidth" : 0.0,
						"description" : "",
						"digest" : "",
						"tags" : "",
						"style" : "",
						"subpatcher_template" : "",
						"assistshowspatchername" : 0,
						"title" : "untitled",
						"boxes" : [ 							{
								"box" : 								{
									"id" : "obj-13",
									"maxclass" : "flonum",
									"numinlets" : 1,
									"numoutlets" : 1,
									"outlettype" : [ "" ],
									"parameter_enable" : 0,
									"patching_rect" : [ 460.0, 164.0, 50.0, 23.0 ],
									"rnbo_classname" : "number",
									"rnbo_extra_attributes" : 									{
										"maximum" : "<none>",
										"minimum" : "<none>",
										"order" : "",
										"preset" : 0,
										"value" : 119.0
									}
,
									"rnbo_serial" : 1,
									"rnbo_uniqueid" : "number_obj-13"
								}

							}
, 							{
								"box" : 								{
									"id" : "obj-12",
									"maxclass" : "flonum",
									"numinlets" : 1,
									"numoutlets" : 1,
									"outlettype" : [ "" ],
									"parameter_enable" : 0,
									"patching_rect" : [ 380.0, 164.0, 50.0, 23.0 ],
									"rnbo_classname" : "number",
									"rnbo_extra_attributes" : 									{
										"maximum" : "<none>",
										"minimum" : "<none>",
										"order" : "",
										"preset" : 0,
										"value" : 306.200000000000045
									}
,
									"rnbo_serial" : 2,
									"rnbo_uniqueid" : "number_obj-12"
								}

							}
, 							{
								"box" : 								{
									"id" : "obj-11",
									"maxclass" : "flonum",
									"numinlets" : 1,
									"numoutlets" : 1,
									"outlettype" : [ "" ],
									"parameter_enable" : 0,
									"patching_rect" : [ 303.0, 164.0, 50.0, 23.0 ],
									"rnbo_classname" : "number",
									"rnbo_extra_attributes" : 									{
										"maximum" : "<none>",
										"minimum" : "<none>",
										"order" : "",
										"preset" : 0,
										"value" : -345.400000000000034
									}
,
									"rnbo_serial" : 3,
									"rnbo_uniqueid" : "number_obj-11"
								}

							}
, 							{
								"box" : 								{
									"id" : "obj-10",
									"maxclass" : "flonum",
									"numinlets" : 1,
									"numoutlets" : 1,
									"outlettype" : [ "" ],
									"parameter_enable" : 0,
									"patching_rect" : [ 230.0, 164.0, 50.0, 23.0 ],
									"rnbo_classname" : "number",
									"rnbo_extra_attributes" : 									{
										"maximum" : "<none>",
										"minimum" : "<none>",
										"order" : "",
										"preset" : 0,
										"value" : 83.920000000000002
									}
,
									"rnbo_serial" : 4,
									"rnbo_uniqueid" : "number_obj-10"
								}

							}
, 							{
								"box" : 								{
									"id" : "obj-9",
									"maxclass" : "flonum",
									"numinlets" : 1,
									"numoutlets" : 1,
									"outlettype" : [ "" ],
									"parameter_enable" : 0,
									"patching_rect" : [ 153.0, 164.0, 50.0, 23.0 ],
									"rnbo_classname" : "number",
									"rnbo_extra_attributes" : 									{
										"maximum" : "<none>",
										"minimum" : "<none>",
										"order" : "",
										"preset" : 0,
										"value" : 572.0
									}
,
									"rnbo_serial" : 5,
									"rnbo_uniqueid" : "number_obj-9"
								}

							}
, 							{
								"box" : 								{
									"id" : "obj-8",
									"maxclass" : "flonum",
									"numinlets" : 1,
									"numoutlets" : 1,
									"outlettype" : [ "" ],
									"parameter_enable" : 0,
									"patching_rect" : [ 83.0, 164.0, 50.0, 23.0 ],
									"rnbo_classname" : "number",
									"rnbo_extra_attributes" : 									{
										"maximum" : "<none>",
										"minimum" : "<none>",
										"order" : "",
										"preset" : 0,
										"value" : 19.0
									}
,
									"rnbo_serial" : 6,
									"rnbo_uniqueid" : "number_obj-8"
								}

							}
, 							{
								"box" : 								{
									"id" : "obj-6",
									"maxclass" : "newobj",
									"numinlets" : 0,
									"numoutlets" : 1,
									"outlettype" : [ "" ],
									"patching_rect" : [ 460.0, 97.0, 28.0, 23.0 ],
									"rnbo_classname" : "in",
									"rnbo_extra_attributes" : 									{
										"comment" : "",
										"meta" : ""
									}
,
									"rnbo_serial" : 1,
									"rnbo_uniqueid" : "in_obj-6",
									"rnboinfo" : 									{
										"needsInstanceInfo" : 1,
										"argnames" : 										{
											"index" : 											{
												"attrOrProp" : 2,
												"digest" : "inlet number",
												"defaultarg" : 1,
												"isalias" : 0,
												"aliases" : [  ],
												"settable" : 1,
												"attachable" : 0,
												"isparam" : 0,
												"deprecated" : 0,
												"type" : "number",
												"mandatory" : 1
											}
,
											"comment" : 											{
												"attrOrProp" : 2,
												"digest" : "mouse over comment",
												"isalias" : 0,
												"aliases" : [  ],
												"settable" : 1,
												"attachable" : 0,
												"isparam" : 0,
												"deprecated" : 0,
												"type" : "symbol"
											}
,
											"meta" : 											{
												"attrOrProp" : 2,
												"digest" : "A JSON formatted string containing metadata for use by the exported code",
												"isalias" : 0,
												"aliases" : [  ],
												"settable" : 1,
												"attachable" : 0,
												"isparam" : 0,
												"deprecated" : 0,
												"type" : "symbol",
												"defaultValue" : "",
												"label" : "Metadata",
												"displayorder" : 3
											}

										}
,
										"inputs" : [  ],
										"outputs" : [ 											{
												"name" : "out1",
												"type" : [ "bang", "number", "list" ],
												"digest" : "value from inlet with index 6",
												"displayName" : "",
												"docked" : 0
											}
 ],
										"helpname" : "in",
										"aliasOf" : "in",
										"classname" : "in",
										"operator" : 0,
										"versionId" : 1219109108,
										"changesPatcherIO" : 1
									}
,
									"text" : "in 6"
								}

							}
, 							{
								"box" : 								{
									"id" : "obj-5",
									"maxclass" : "newobj",
									"numinlets" : 0,
									"numoutlets" : 1,
									"outlettype" : [ "" ],
									"patching_rect" : [ 380.0, 97.0, 28.0, 23.0 ],
									"rnbo_classname" : "in",
									"rnbo_extra_attributes" : 									{
										"comment" : "",
										"meta" : ""
									}
,
									"rnbo_serial" : 2,
									"rnbo_uniqueid" : "in_obj-5",
									"rnboinfo" : 									{
										"needsInstanceInfo" : 1,
										"argnames" : 										{
											"index" : 											{
												"attrOrProp" : 2,
												"digest" : "inlet number",
												"defaultarg" : 1,
												"isalias" : 0,
												"aliases" : [  ],
												"settable" : 1,
												"attachable" : 0,
												"isparam" : 0,
												"deprecated" : 0,
												"type" : "number",
												"mandatory" : 1
											}
,
											"comment" : 											{
												"attrOrProp" : 2,
												"digest" : "mouse over comment",
												"isalias" : 0,
												"aliases" : [  ],
												"settable" : 1,
												"attachable" : 0,
												"isparam" : 0,
												"deprecated" : 0,
												"type" : "symbol"
											}
,
											"meta" : 											{
												"attrOrProp" : 2,
												"digest" : "A JSON formatted string containing metadata for use by the exported code",
												"isalias" : 0,
												"aliases" : [  ],
												"settable" : 1,
												"attachable" : 0,
												"isparam" : 0,
												"deprecated" : 0,
												"type" : "symbol",
												"defaultValue" : "",
												"label" : "Metadata",
												"displayorder" : 3
											}

										}
,
										"inputs" : [  ],
										"outputs" : [ 											{
												"name" : "out1",
												"type" : [ "bang", "number", "list" ],
												"digest" : "value from inlet with index 5",
												"displayName" : "",
												"docked" : 0
											}
 ],
										"helpname" : "in",
										"aliasOf" : "in",
										"classname" : "in",
										"operator" : 0,
										"versionId" : 1219109108,
										"changesPatcherIO" : 1
									}
,
									"text" : "in 5"
								}

							}
, 							{
								"box" : 								{
									"id" : "obj-4",
									"maxclass" : "newobj",
									"numinlets" : 0,
									"numoutlets" : 1,
									"outlettype" : [ "" ],
									"patching_rect" : [ 303.0, 97.0, 28.0, 23.0 ],
									"rnbo_classname" : "in",
									"rnbo_extra_attributes" : 									{
										"comment" : "",
										"meta" : ""
									}
,
									"rnbo_serial" : 3,
									"rnbo_uniqueid" : "in_obj-4",
									"rnboinfo" : 									{
										"needsInstanceInfo" : 1,
										"argnames" : 										{
											"index" : 											{
												"attrOrProp" : 2,
												"digest" : "inlet number",
												"defaultarg" : 1,
												"isalias" : 0,
												"aliases" : [  ],
												"settable" : 1,
												"attachable" : 0,
												"isparam" : 0,
												"deprecated" : 0,
												"type" : "number",
												"mandatory" : 1
											}
,
											"comment" : 											{
												"attrOrProp" : 2,
												"digest" : "mouse over comment",
												"isalias" : 0,
												"aliases" : [  ],
												"settable" : 1,
												"attachable" : 0,
												"isparam" : 0,
												"deprecated" : 0,
												"type" : "symbol"
											}
,
											"meta" : 											{
												"attrOrProp" : 2,
												"digest" : "A JSON formatted string containing metadata for use by the exported code",
												"isalias" : 0,
												"aliases" : [  ],
												"settable" : 1,
												"attachable" : 0,
												"isparam" : 0,
												"deprecated" : 0,
												"type" : "symbol",
												"defaultValue" : "",
												"label" : "Metadata",
												"displayorder" : 3
											}

										}
,
										"inputs" : [  ],
										"outputs" : [ 											{
												"name" : "out1",
												"type" : [ "bang", "number", "list" ],
												"digest" : "value from inlet with index 4",
												"displayName" : "",
												"docked" : 0
											}
 ],
										"helpname" : "in",
										"aliasOf" : "in",
										"classname" : "in",
										"operator" : 0,
										"versionId" : 1219109108,
										"changesPatcherIO" : 1
									}
,
									"text" : "in 4"
								}

							}
, 							{
								"box" : 								{
									"id" : "obj-3",
									"maxclass" : "newobj",
									"numinlets" : 0,
									"numoutlets" : 1,
									"outlettype" : [ "" ],
									"patching_rect" : [ 230.0, 97.0, 28.0, 23.0 ],
									"rnbo_classname" : "in",
									"rnbo_extra_attributes" : 									{
										"comment" : "",
										"meta" : ""
									}
,
									"rnbo_serial" : 4,
									"rnbo_uniqueid" : "in_obj-3",
									"rnboinfo" : 									{
										"needsInstanceInfo" : 1,
										"argnames" : 										{
											"index" : 											{
												"attrOrProp" : 2,
												"digest" : "inlet number",
												"defaultarg" : 1,
												"isalias" : 0,
												"aliases" : [  ],
												"settable" : 1,
												"attachable" : 0,
												"isparam" : 0,
												"deprecated" : 0,
												"type" : "number",
												"mandatory" : 1
											}
,
											"comment" : 											{
												"attrOrProp" : 2,
												"digest" : "mouse over comment",
												"isalias" : 0,
												"aliases" : [  ],
												"settable" : 1,
												"attachable" : 0,
												"isparam" : 0,
												"deprecated" : 0,
												"type" : "symbol"
											}
,
											"meta" : 											{
												"attrOrProp" : 2,
												"digest" : "A JSON formatted string containing metadata for use by the exported code",
												"isalias" : 0,
												"aliases" : [  ],
												"settable" : 1,
												"attachable" : 0,
												"isparam" : 0,
												"deprecated" : 0,
												"type" : "symbol",
												"defaultValue" : "",
												"label" : "Metadata",
												"displayorder" : 3
											}

										}
,
										"inputs" : [  ],
										"outputs" : [ 											{
												"name" : "out1",
												"type" : [ "bang", "number", "list" ],
												"digest" : "value from inlet with index 3",
												"displayName" : "",
												"docked" : 0
											}
 ],
										"helpname" : "in",
										"aliasOf" : "in",
										"classname" : "in",
										"operator" : 0,
										"versionId" : 1219109108,
										"changesPatcherIO" : 1
									}
,
									"text" : "in 3"
								}

							}
, 							{
								"box" : 								{
									"id" : "obj-2",
									"maxclass" : "newobj",
									"numinlets" : 0,
									"numoutlets" : 1,
									"outlettype" : [ "" ],
									"patching_rect" : [ 153.0, 97.0, 28.0, 23.0 ],
									"rnbo_classname" : "in",
									"rnbo_extra_attributes" : 									{
										"comment" : "",
										"meta" : ""
									}
,
									"rnbo_serial" : 5,
									"rnbo_uniqueid" : "in_obj-2",
									"rnboinfo" : 									{
										"needsInstanceInfo" : 1,
										"argnames" : 										{
											"index" : 											{
												"attrOrProp" : 2,
												"digest" : "inlet number",
												"defaultarg" : 1,
												"isalias" : 0,
												"aliases" : [  ],
												"settable" : 1,
												"attachable" : 0,
												"isparam" : 0,
												"deprecated" : 0,
												"type" : "number",
												"mandatory" : 1
											}
,
											"comment" : 											{
												"attrOrProp" : 2,
												"digest" : "mouse over comment",
												"isalias" : 0,
												"aliases" : [  ],
												"settable" : 1,
												"attachable" : 0,
												"isparam" : 0,
												"deprecated" : 0,
												"type" : "symbol"
											}
,
											"meta" : 											{
												"attrOrProp" : 2,
												"digest" : "A JSON formatted string containing metadata for use by the exported code",
												"isalias" : 0,
												"aliases" : [  ],
												"settable" : 1,
												"attachable" : 0,
												"isparam" : 0,
												"deprecated" : 0,
												"type" : "symbol",
												"defaultValue" : "",
												"label" : "Metadata",
												"displayorder" : 3
											}

										}
,
										"inputs" : [  ],
										"outputs" : [ 											{
												"name" : "out1",
												"type" : [ "bang", "number", "list" ],
												"digest" : "value from inlet with index 2",
												"displayName" : "",
												"docked" : 0
											}
 ],
										"helpname" : "in",
										"aliasOf" : "in",
										"classname" : "in",
										"operator" : 0,
										"versionId" : 1219109108,
										"changesPatcherIO" : 1
									}
,
									"text" : "in 2"
								}

							}
, 							{
								"box" : 								{
									"id" : "obj-1",
									"maxclass" : "newobj",
									"numinlets" : 0,
									"numoutlets" : 1,
									"outlettype" : [ "" ],
									"patching_rect" : [ 83.0, 97.0, 28.0, 23.0 ],
									"rnbo_classname" : "in",
									"rnbo_extra_attributes" : 									{
										"comment" : "",
										"meta" : ""
									}
,
									"rnbo_serial" : 6,
									"rnbo_uniqueid" : "in_obj-1",
									"rnboinfo" : 									{
										"needsInstanceInfo" : 1,
										"argnames" : 										{
											"index" : 											{
												"attrOrProp" : 2,
												"digest" : "inlet number",
												"defaultarg" : 1,
												"isalias" : 0,
												"aliases" : [  ],
												"settable" : 1,
												"attachable" : 0,
												"isparam" : 0,
												"deprecated" : 0,
												"type" : "number",
												"mandatory" : 1
											}
,
											"comment" : 											{
												"attrOrProp" : 2,
												"digest" : "mouse over comment",
												"isalias" : 0,
												"aliases" : [  ],
												"settable" : 1,
												"attachable" : 0,
												"isparam" : 0,
												"deprecated" : 0,
												"type" : "symbol"
											}
,
											"meta" : 											{
												"attrOrProp" : 2,
												"digest" : "A JSON formatted string containing metadata for use by the exported code",
												"isalias" : 0,
												"aliases" : [  ],
												"settable" : 1,
												"attachable" : 0,
												"isparam" : 0,
												"deprecated" : 0,
												"type" : "symbol",
												"defaultValue" : "",
												"label" : "Metadata",
												"displayorder" : 3
											}

										}
,
										"inputs" : [  ],
										"outputs" : [ 											{
												"name" : "out1",
												"type" : [ "bang", "number", "list" ],
												"digest" : "value from inlet with index 1",
												"displayName" : "",
												"docked" : 0
											}
 ],
										"helpname" : "in",
										"aliasOf" : "in",
										"classname" : "in",
										"operator" : 0,
										"versionId" : 1219109108,
										"changesPatcherIO" : 1
									}
,
									"text" : "in 1"
								}

							}
 ],
						"lines" : [ 							{
								"patchline" : 								{
									"destination" : [ "obj-8", 0 ],
									"source" : [ "obj-1", 0 ]
								}

							}
, 							{
								"patchline" : 								{
									"destination" : [ "obj-9", 0 ],
									"source" : [ "obj-2", 0 ]
								}

							}
, 							{
								"patchline" : 								{
									"destination" : [ "obj-10", 0 ],
									"source" : [ "obj-3", 0 ]
								}

							}
, 							{
								"patchline" : 								{
									"destination" : [ "obj-11", 0 ],
									"source" : [ "obj-4", 0 ]
								}

							}
, 							{
								"patchline" : 								{
									"destination" : [ "obj-12", 0 ],
									"source" : [ "obj-5", 0 ]
								}

							}
, 							{
								"patchline" : 								{
									"destination" : [ "obj-13", 0 ],
									"source" : [ "obj-6", 0 ]
								}

							}
 ],
						"default_bgcolor" : [ 0.031372549019608, 0.125490196078431, 0.211764705882353, 1.0 ],
						"color" : [ 0.929412, 0.929412, 0.352941, 1.0 ],
						"elementcolor" : [ 0.357540726661682, 0.515565991401672, 0.861786782741547, 1.0 ],
						"accentcolor" : [ 0.343034118413925, 0.506230533123016, 0.86220508813858, 1.0 ],
						"stripecolor" : [ 0.258338063955307, 0.352425158023834, 0.511919498443604, 1.0 ],
						"bgfillcolor_type" : "color",
						"bgfillcolor_color" : [ 0.031372549019608, 0.125490196078431, 0.211764705882353, 1.0 ],
						"bgfillcolor_color1" : [ 0.031372549019608, 0.125490196078431, 0.211764705882353, 1.0 ],
						"bgfillcolor_color2" : [ 0.263682, 0.004541, 0.038797, 1.0 ],
						"bgfillcolor_angle" : 270.0,
						"bgfillcolor_proportion" : 0.39,
						"bgfillcolor_autogradient" : 0.0,
						"export_config" : 						{
							"web-export" : 							{
								"json-web-export" : 								{
									"copy_dependencies" : 1,
									"exposevoiceparams" : 1,
									"openexportdirectory" : 1,
									"classname" : "rnbomatic"
								}

							}

						}

					}
,
					"patching_rect" : [ 675.0, 216.999989032745361, 110.0, 22.0 ],
					"rnboattrcache" : 					{

					}
,
					"rnboversion" : "1.0.1",
					"saved_attribute_attributes" : 					{
						"valueof" : 						{
							"parameter_invisible" : 1,
							"parameter_longname" : "rnbo~[1]",
							"parameter_shortname" : "rnbo~[1]",
							"parameter_type" : 3
						}

					}
,
					"saved_object_attributes" : 					{
						"optimization" : "O1",
						"parameter_enable" : 1,
						"uuid" : "48e87d7b-70ae-11ed-bd7b-acde48001122"
					}
,
					"snapshot" : 					{
						"filetype" : "C74Snapshot",
						"version" : 2,
						"minorversion" : 0,
						"name" : "snapshotlist",
						"origin" : "rnbo~",
						"type" : "list",
						"subtype" : "Undefined",
						"embed" : 1,
						"snapshot" : 						{
							"__presetid" : "48e87d7b-70ae-11ed-bd7b-acde48001122"
						}
,
						"snapshotlist" : 						{
							"current_snapshot" : 0,
							"entries" : [ 								{
									"filetype" : "C74Snapshot",
									"version" : 2,
									"minorversion" : 0,
									"name" : "untitled",
									"origin" : "48e87d7b-70ae-11ed-bd7b-acde48001122",
									"type" : "rnbo",
									"subtype" : "",
									"embed" : 1,
									"snapshot" : 									{
										"__presetid" : "48e87d7b-70ae-11ed-bd7b-acde48001122"
									}
,
									"fileref" : 									{
										"name" : "untitled",
										"filename" : "untitled_20221130.maxsnap",
										"filepath" : "~/Desktop/rnbo.example.webpage-2/maxproject/gyroosc/data",
										"filepos" : -1,
										"snapshotfileid" : "3e06a17c4156617e3e9a501169f06ff2"
									}

								}
 ]
						}

					}
,
					"text" : "rnbo~ 0 0 0 0 0 0 0",
					"varname" : "rnbo~[1]"
				}

			}
, 			{
				"box" : 				{
					"id" : "obj-44",
					"maxclass" : "message",
					"numinlets" : 2,
					"numoutlets" : 1,
					"outlettype" : [ "" ],
					"patching_rect" : [ 455.0, 108.0, 83.0, 22.0 ],
					"text" : "inprtmssgs $1"
				}

			}
, 			{
				"box" : 				{
					"id" : "obj-38",
					"maxclass" : "newobj",
					"numinlets" : 6,
					"numoutlets" : 1,
					"outlettype" : [ "" ],
					"patching_rect" : [ 904.0, 728.39599609375, 117.0, 22.0 ],
					"text" : "scale 0. 500. 0. 100."
				}

			}
, 			{
				"box" : 				{
					"id" : "obj-39",
					"maxclass" : "newobj",
					"numinlets" : 2,
					"numoutlets" : 1,
					"outlettype" : [ "int" ],
					"patching_rect" : [ 904.0, 677.39599609375, 39.0, 22.0 ],
					"text" : "+ 500"
				}

			}
, 			{
				"box" : 				{
					"format" : 6,
					"id" : "obj-40",
					"maxclass" : "flonum",
					"numinlets" : 1,
					"numoutlets" : 2,
					"outlettype" : [ "", "bang" ],
					"parameter_enable" : 0,
					"patching_rect" : [ 904.0, 778.39599609375, 50.0, 22.0 ]
				}

			}
, 			{
				"box" : 				{
					"format" : 6,
					"id" : "obj-41",
					"maxclass" : "flonum",
					"numinlets" : 1,
					"numoutlets" : 2,
					"outlettype" : [ "", "bang" ],
					"parameter_enable" : 0,
					"patching_rect" : [ 904.0, 613.39599609375, 50.0, 22.0 ]
				}

			}
, 			{
				"box" : 				{
					"id" : "obj-34",
					"maxclass" : "newobj",
					"numinlets" : 6,
					"numoutlets" : 1,
					"outlettype" : [ "" ],
					"patching_rect" : [ 742.0, 728.39599609375, 117.0, 22.0 ],
					"text" : "scale 0. 500. 0. 100."
				}

			}
, 			{
				"box" : 				{
					"id" : "obj-35",
					"maxclass" : "newobj",
					"numinlets" : 2,
					"numoutlets" : 1,
					"outlettype" : [ "int" ],
					"patching_rect" : [ 742.0, 677.39599609375, 39.0, 22.0 ],
					"text" : "+ 500"
				}

			}
, 			{
				"box" : 				{
					"format" : 6,
					"id" : "obj-36",
					"maxclass" : "flonum",
					"numinlets" : 1,
					"numoutlets" : 2,
					"outlettype" : [ "", "bang" ],
					"parameter_enable" : 0,
					"patching_rect" : [ 742.0, 778.39599609375, 50.0, 22.0 ]
				}

			}
, 			{
				"box" : 				{
					"format" : 6,
					"id" : "obj-37",
					"maxclass" : "flonum",
					"numinlets" : 1,
					"numoutlets" : 2,
					"outlettype" : [ "", "bang" ],
					"parameter_enable" : 0,
					"patching_rect" : [ 742.0, 613.39599609375, 50.0, 22.0 ]
				}

			}
, 			{
				"box" : 				{
					"format" : 6,
					"id" : "obj-31",
					"maxclass" : "flonum",
					"numinlets" : 1,
					"numoutlets" : 2,
					"outlettype" : [ "", "bang" ],
					"parameter_enable" : 0,
					"patching_rect" : [ 413.333319902420044, 778.39599609375, 50.0, 22.0 ]
				}

			}
, 			{
				"box" : 				{
					"id" : "obj-32",
					"linecount" : 2,
					"maxclass" : "newobj",
					"numinlets" : 6,
					"numoutlets" : 1,
					"outlettype" : [ "" ],
					"patching_rect" : [ 413.333319902420044, 677.39599609375, 129.0, 35.0 ],
					"text" : "scale 10000. 20000. 0. 100."
				}

			}
, 			{
				"box" : 				{
					"format" : 6,
					"id" : "obj-33",
					"maxclass" : "flonum",
					"numinlets" : 1,
					"numoutlets" : 2,
					"outlettype" : [ "", "bang" ],
					"parameter_enable" : 0,
					"patching_rect" : [ 413.333319902420044, 613.39599609375, 129.0, 22.0 ]
				}

			}
, 			{
				"box" : 				{
					"id" : "obj-27",
					"maxclass" : "newobj",
					"numinlets" : 6,
					"numoutlets" : 1,
					"outlettype" : [ "" ],
					"patching_rect" : [ 576.0, 728.39599609375, 117.0, 22.0 ],
					"text" : "scale 0. 500. 0. 100."
				}

			}
, 			{
				"box" : 				{
					"id" : "obj-28",
					"maxclass" : "newobj",
					"numinlets" : 2,
					"numoutlets" : 1,
					"outlettype" : [ "int" ],
					"patching_rect" : [ 576.0, 677.39599609375, 39.0, 22.0 ],
					"text" : "+ 500"
				}

			}
, 			{
				"box" : 				{
					"format" : 6,
					"id" : "obj-29",
					"maxclass" : "flonum",
					"numinlets" : 1,
					"numoutlets" : 2,
					"outlettype" : [ "", "bang" ],
					"parameter_enable" : 0,
					"patching_rect" : [ 576.0, 778.39599609375, 50.0, 22.0 ]
				}

			}
, 			{
				"box" : 				{
					"format" : 6,
					"id" : "obj-30",
					"maxclass" : "flonum",
					"numinlets" : 1,
					"numoutlets" : 2,
					"outlettype" : [ "", "bang" ],
					"parameter_enable" : 0,
					"patching_rect" : [ 576.0, 613.39599609375, 50.0, 22.0 ]
				}

			}
, 			{
				"box" : 				{
					"id" : "obj-26",
					"maxclass" : "newobj",
					"numinlets" : 6,
					"numoutlets" : 1,
					"outlettype" : [ "" ],
					"patching_rect" : [ 253.0, 728.39599609375, 117.0, 22.0 ],
					"text" : "scale 0. 500. 0. 100."
				}

			}
, 			{
				"box" : 				{
					"id" : "obj-25",
					"maxclass" : "newobj",
					"numinlets" : 2,
					"numoutlets" : 1,
					"outlettype" : [ "int" ],
					"patching_rect" : [ 253.0, 677.39599609375, 46.0, 22.0 ],
					"text" : "+ 1500"
				}

			}
, 			{
				"box" : 				{
					"format" : 6,
					"id" : "obj-22",
					"maxclass" : "flonum",
					"numinlets" : 1,
					"numoutlets" : 2,
					"outlettype" : [ "", "bang" ],
					"parameter_enable" : 0,
					"patching_rect" : [ 253.0, 778.39599609375, 50.0, 22.0 ]
				}

			}
, 			{
				"box" : 				{
					"format" : 6,
					"id" : "obj-24",
					"maxclass" : "flonum",
					"numinlets" : 1,
					"numoutlets" : 2,
					"outlettype" : [ "", "bang" ],
					"parameter_enable" : 0,
					"patching_rect" : [ 253.0, 613.39599609375, 50.0, 22.0 ]
				}

			}
, 			{
				"box" : 				{
					"format" : 6,
					"id" : "obj-21",
					"maxclass" : "flonum",
					"numinlets" : 1,
					"numoutlets" : 2,
					"outlettype" : [ "", "bang" ],
					"parameter_enable" : 0,
					"patching_rect" : [ 97.0, 778.39599609375, 50.0, 22.0 ]
				}

			}
, 			{
				"box" : 				{
					"id" : "obj-19",
					"maxclass" : "newobj",
					"numinlets" : 6,
					"numoutlets" : 1,
					"outlettype" : [ "" ],
					"patching_rect" : [ 97.0, 677.39599609375, 134.0, 22.0 ],
					"text" : "scale -200. 200. 0. 100."
				}

			}
, 			{
				"box" : 				{
					"format" : 6,
					"id" : "obj-20",
					"maxclass" : "flonum",
					"numinlets" : 1,
					"numoutlets" : 2,
					"outlettype" : [ "", "bang" ],
					"parameter_enable" : 0,
					"patching_rect" : [ 97.0, 613.39599609375, 50.0, 22.0 ]
				}

			}
, 			{
				"box" : 				{
					"id" : "obj-11",
					"maxclass" : "message",
					"numinlets" : 2,
					"numoutlets" : 1,
					"outlettype" : [ "" ],
					"patching_rect" : [ 492.333319902420044, 527.333324551582336, 50.0, 22.0 ],
					"text" : "95"
				}

			}
, 			{
				"box" : 				{
					"id" : "obj-10",
					"maxclass" : "message",
					"numinlets" : 2,
					"numoutlets" : 1,
					"outlettype" : [ "" ],
					"patching_rect" : [ 413.333319902420044, 527.333324551582336, 50.0, 22.0 ],
					"text" : "1031"
				}

			}
, 			{
				"box" : 				{
					"id" : "obj-9",
					"maxclass" : "message",
					"numinlets" : 2,
					"numoutlets" : 1,
					"outlettype" : [ "" ],
					"patching_rect" : [ 325.333319902420044, 527.333324551582336, 50.0, 22.0 ],
					"text" : "-2227"
				}

			}
, 			{
				"box" : 				{
					"id" : "obj-8",
					"maxclass" : "message",
					"numinlets" : 2,
					"numoutlets" : 1,
					"outlettype" : [ "" ],
					"patching_rect" : [ 232.333319902420044, 527.333324551582336, 50.0, 22.0 ],
					"text" : "18392"
				}

			}
, 			{
				"box" : 				{
					"id" : "obj-7",
					"maxclass" : "message",
					"numinlets" : 2,
					"numoutlets" : 1,
					"outlettype" : [ "" ],
					"patching_rect" : [ 146.333319902420044, 527.333324551582336, 50.0, 22.0 ],
					"text" : "1360"
				}

			}
, 			{
				"box" : 				{
					"id" : "obj-6",
					"maxclass" : "message",
					"numinlets" : 2,
					"numoutlets" : 1,
					"outlettype" : [ "" ],
					"patching_rect" : [ 63.333319902420044, 527.333324551582336, 50.0, 22.0 ],
					"text" : "-124"
				}

			}
, 			{
				"box" : 				{
					"id" : "obj-5",
					"maxclass" : "newobj",
					"numinlets" : 1,
					"numoutlets" : 6,
					"outlettype" : [ "int", "int", "int", "int", "int", "int" ],
					"patching_rect" : [ 162.0, 398.0, 107.0, 22.0 ],
					"text" : "unpack 0 0 0 0 0 0"
				}

			}
, 			{
				"box" : 				{
					"id" : "obj-17",
					"maxclass" : "newobj",
					"numinlets" : 2,
					"numoutlets" : 2,
					"outlettype" : [ "", "" ],
					"patching_rect" : [ 178.166653990745544, 335.833322167396545, 68.0, 22.0 ],
					"text" : "route /Data"
				}

			}
, 			{
				"box" : 				{
					"id" : "obj-214",
					"linecount" : 4,
					"maxclass" : "message",
					"numinlets" : 2,
					"numoutlets" : 1,
					"outlettype" : [ "" ],
					"patching_rect" : [ 55.0, 221.999989032745361, 87.0, 62.0 ],
					"text" : "/Data -124 1360 18392 -2227 1031 95 0 0 0"
				}

			}
, 			{
				"box" : 				{
					"id" : "obj-215",
					"maxclass" : "newobj",
					"numinlets" : 1,
					"numoutlets" : 1,
					"outlettype" : [ "" ],
					"patching_rect" : [ 191.166653990745544, 176.333320140838623, 67.0, 22.0 ],
					"text" : "udpreceive"
				}

			}
, 			{
				"box" : 				{
					"id" : "obj-216",
					"maxclass" : "message",
					"numinlets" : 2,
					"numoutlets" : 1,
					"outlettype" : [ "" ],
					"patching_rect" : [ 191.166653990745544, 126.999985337257385, 59.0, 22.0 ],
					"text" : "port 5000"
				}

			}
, 			{
				"box" : 				{
					"autosave" : 1,
					"id" : "obj-2",
					"inletInfo" : 					{
						"IOInfo" : [  ]
					}
,
					"maxclass" : "newobj",
					"numinlets" : 1,
					"numoutlets" : 1,
					"outletInfo" : 					{
						"IOInfo" : [  ]
					}
,
					"outlettype" : [ "list" ],
					"patcher" : 					{
						"fileversion" : 1,
						"appversion" : 						{
							"major" : 8,
							"minor" : 5,
							"revision" : 1,
							"architecture" : "x64",
							"modernui" : 1
						}
,
						"classnamespace" : "rnbo",
						"rect" : [ 59.0, 106.0, 640.0, 480.0 ],
						"bglocked" : 0,
						"openinpresentation" : 0,
						"default_fontsize" : 12.0,
						"default_fontface" : 0,
						"default_fontname" : "Lato",
						"gridonopen" : 1,
						"gridsize" : [ 15.0, 15.0 ],
						"gridsnaponopen" : 1,
						"objectsnaponopen" : 1,
						"statusbarvisible" : 2,
						"toolbarvisible" : 1,
						"lefttoolbarpinned" : 0,
						"toptoolbarpinned" : 0,
						"righttoolbarpinned" : 0,
						"bottomtoolbarpinned" : 0,
						"toolbars_unpinned_last_save" : 0,
						"tallnewobj" : 0,
						"boxanimatetime" : 200,
						"enablehscroll" : 1,
						"enablevscroll" : 1,
						"devicewidth" : 0.0,
						"description" : "",
						"digest" : "",
						"tags" : "",
						"style" : "",
						"subpatcher_template" : "",
						"assistshowspatchername" : 0,
						"title" : "inportpatch",
						"boxes" : [ 							{
								"box" : 								{
									"id" : "obj-8",
									"maxclass" : "flonum",
									"numinlets" : 1,
									"numoutlets" : 1,
									"outlettype" : [ "" ],
									"parameter_enable" : 0,
									"patching_rect" : [ 15.0, 68.0, 50.0, 23.0 ],
									"rnbo_classname" : "number",
									"rnbo_extra_attributes" : 									{
										"maximum" : "<none>",
										"minimum" : "<none>",
										"order" : "",
										"preset" : 0,
										"value" : 0.0
									}
,
									"rnbo_serial" : 1,
									"rnbo_uniqueid" : "number_obj-8"
								}

							}
, 							{
								"box" : 								{
									"id" : "obj-1",
									"maxclass" : "newobj",
									"numinlets" : 0,
									"numoutlets" : 1,
									"outlettype" : [ "" ],
									"patching_rect" : [ 15.0, 15.0, 100.0, 23.0 ],
									"rnbo_classname" : "inport",
									"rnbo_extra_attributes" : 									{
										"meta" : ""
									}
,
									"rnbo_serial" : 1,
									"rnbo_uniqueid" : "inport_obj-1",
									"text" : "inport inprtmssgs"
								}

							}
 ],
						"lines" : [ 							{
								"patchline" : 								{
									"destination" : [ "obj-8", 0 ],
									"source" : [ "obj-1", 0 ]
								}

							}
 ],
						"default_bgcolor" : [ 0.031372549019608, 0.125490196078431, 0.211764705882353, 1.0 ],
						"color" : [ 0.929412, 0.929412, 0.352941, 1.0 ],
						"elementcolor" : [ 0.357540726661682, 0.515565991401672, 0.861786782741547, 1.0 ],
						"accentcolor" : [ 0.343034118413925, 0.506230533123016, 0.86220508813858, 1.0 ],
						"stripecolor" : [ 0.258338063955307, 0.352425158023834, 0.511919498443604, 1.0 ],
						"bgfillcolor_type" : "color",
						"bgfillcolor_color" : [ 0.031372549019608, 0.125490196078431, 0.211764705882353, 1.0 ],
						"bgfillcolor_color1" : [ 0.031372549019608, 0.125490196078431, 0.211764705882353, 1.0 ],
						"bgfillcolor_color2" : [ 0.263682, 0.004541, 0.038797, 1.0 ],
						"bgfillcolor_angle" : 270.0,
						"bgfillcolor_proportion" : 0.39,
						"bgfillcolor_autogradient" : 0.0
					}
,
					"patching_rect" : [ 455.0, 216.999989032745361, 136.0, 22.0 ],
					"rnboattrcache" : 					{

					}
,
					"rnboversion" : "1.0.1",
					"saved_attribute_attributes" : 					{
						"valueof" : 						{
							"parameter_invisible" : 1,
							"parameter_longname" : "rnbo~",
							"parameter_shortname" : "rnbo~",
							"parameter_type" : 3
						}

					}
,
					"saved_object_attributes" : 					{
						"optimization" : "O1",
						"parameter_enable" : 1,
						"uuid" : "14c1268b-70a6-11ed-a68b-acde48001122"
					}
,
					"snapshot" : 					{
						"filetype" : "C74Snapshot",
						"version" : 2,
						"minorversion" : 0,
						"name" : "snapshotlist",
						"origin" : "rnbo~",
						"type" : "list",
						"subtype" : "Undefined",
						"embed" : 1,
						"snapshot" : 						{
							"__presetid" : "inportpatch"
						}
,
						"snapshotlist" : 						{
							"current_snapshot" : 0,
							"entries" : [ 								{
									"filetype" : "C74Snapshot",
									"version" : 2,
									"minorversion" : 0,
									"name" : "inportpatch",
									"origin" : "inportpatch",
									"type" : "rnbo",
									"subtype" : "",
									"embed" : 0,
									"snapshot" : 									{
										"__presetid" : "inportpatch"
									}
,
									"fileref" : 									{
										"name" : "inportpatch",
										"filename" : "inportpatch.maxsnap",
										"filepath" : "~/Desktop/rnbo.example.webpage-2/maxproject/gyroosc/data",
										"filepos" : -1,
										"snapshotfileid" : "bcb2bbcf942fb8d46baabdf48b80ea6c"
									}

								}
 ]
						}

					}
,
					"text" : "rnbo~ @title inportpatch",
					"varname" : "rnbo~"
				}

			}
 ],
		"lines" : [ 			{
				"patchline" : 				{
					"destination" : [ "obj-3", 1 ],
					"source" : [ "obj-12", 1 ]
				}

			}
, 			{
				"patchline" : 				{
					"destination" : [ "obj-3", 0 ],
					"source" : [ "obj-12", 0 ]
				}

			}
, 			{
				"patchline" : 				{
					"destination" : [ "obj-5", 0 ],
					"source" : [ "obj-17", 0 ]
				}

			}
, 			{
				"patchline" : 				{
					"destination" : [ "obj-21", 0 ],
					"source" : [ "obj-19", 0 ]
				}

			}
, 			{
				"patchline" : 				{
					"destination" : [ "obj-19", 0 ],
					"source" : [ "obj-20", 0 ]
				}

			}
, 			{
				"patchline" : 				{
					"destination" : [ "obj-46", 0 ],
					"source" : [ "obj-21", 0 ]
				}

			}
, 			{
				"patchline" : 				{
					"destination" : [ "obj-17", 0 ],
					"order" : 0,
					"source" : [ "obj-215", 0 ]
				}

			}
, 			{
				"patchline" : 				{
					"destination" : [ "obj-214", 1 ],
					"order" : 1,
					"source" : [ "obj-215", 0 ]
				}

			}
, 			{
				"patchline" : 				{
					"destination" : [ "obj-215", 0 ],
					"source" : [ "obj-216", 0 ]
				}

			}
, 			{
				"patchline" : 				{
					"destination" : [ "obj-46", 1 ],
					"source" : [ "obj-22", 0 ]
				}

			}
, 			{
				"patchline" : 				{
					"destination" : [ "obj-25", 0 ],
					"source" : [ "obj-24", 0 ]
				}

			}
, 			{
				"patchline" : 				{
					"destination" : [ "obj-26", 0 ],
					"source" : [ "obj-25", 0 ]
				}

			}
, 			{
				"patchline" : 				{
					"destination" : [ "obj-22", 0 ],
					"source" : [ "obj-26", 0 ]
				}

			}
, 			{
				"patchline" : 				{
					"destination" : [ "obj-29", 0 ],
					"source" : [ "obj-27", 0 ]
				}

			}
, 			{
				"patchline" : 				{
					"destination" : [ "obj-27", 0 ],
					"source" : [ "obj-28", 0 ]
				}

			}
, 			{
				"patchline" : 				{
					"destination" : [ "obj-46", 3 ],
					"source" : [ "obj-29", 0 ]
				}

			}
, 			{
				"patchline" : 				{
					"destination" : [ "obj-28", 0 ],
					"source" : [ "obj-30", 0 ]
				}

			}
, 			{
				"patchline" : 				{
					"destination" : [ "obj-46", 2 ],
					"source" : [ "obj-31", 0 ]
				}

			}
, 			{
				"patchline" : 				{
					"destination" : [ "obj-31", 0 ],
					"source" : [ "obj-32", 0 ]
				}

			}
, 			{
				"patchline" : 				{
					"destination" : [ "obj-32", 0 ],
					"source" : [ "obj-33", 0 ]
				}

			}
, 			{
				"patchline" : 				{
					"destination" : [ "obj-36", 0 ],
					"source" : [ "obj-34", 0 ]
				}

			}
, 			{
				"patchline" : 				{
					"destination" : [ "obj-34", 0 ],
					"source" : [ "obj-35", 0 ]
				}

			}
, 			{
				"patchline" : 				{
					"destination" : [ "obj-46", 4 ],
					"source" : [ "obj-36", 0 ]
				}

			}
, 			{
				"patchline" : 				{
					"destination" : [ "obj-35", 0 ],
					"source" : [ "obj-37", 0 ]
				}

			}
, 			{
				"patchline" : 				{
					"destination" : [ "obj-40", 0 ],
					"source" : [ "obj-38", 0 ]
				}

			}
, 			{
				"patchline" : 				{
					"destination" : [ "obj-38", 0 ],
					"source" : [ "obj-39", 0 ]
				}

			}
, 			{
				"patchline" : 				{
					"destination" : [ "obj-1", 1 ],
					"source" : [ "obj-4", 1 ]
				}

			}
, 			{
				"patchline" : 				{
					"destination" : [ "obj-1", 0 ],
					"source" : [ "obj-4", 0 ]
				}

			}
, 			{
				"patchline" : 				{
					"destination" : [ "obj-46", 5 ],
					"source" : [ "obj-40", 0 ]
				}

			}
, 			{
				"patchline" : 				{
					"destination" : [ "obj-39", 0 ],
					"source" : [ "obj-41", 0 ]
				}

			}
, 			{
				"patchline" : 				{
					"destination" : [ "obj-2", 0 ],
					"source" : [ "obj-44", 0 ]
				}

			}
, 			{
				"patchline" : 				{
					"destination" : [ "obj-10", 1 ],
					"order" : 1,
					"source" : [ "obj-5", 4 ]
				}

			}
, 			{
				"patchline" : 				{
					"destination" : [ "obj-11", 1 ],
					"order" : 1,
					"source" : [ "obj-5", 5 ]
				}

			}
, 			{
				"patchline" : 				{
					"destination" : [ "obj-20", 0 ],
					"order" : 1,
					"source" : [ "obj-5", 0 ]
				}

			}
, 			{
				"patchline" : 				{
					"destination" : [ "obj-24", 0 ],
					"order" : 0,
					"source" : [ "obj-5", 1 ]
				}

			}
, 			{
				"patchline" : 				{
					"destination" : [ "obj-30", 0 ],
					"order" : 0,
					"source" : [ "obj-5", 3 ]
				}

			}
, 			{
				"patchline" : 				{
					"destination" : [ "obj-33", 0 ],
					"order" : 0,
					"source" : [ "obj-5", 2 ]
				}

			}
, 			{
				"patchline" : 				{
					"destination" : [ "obj-37", 0 ],
					"order" : 0,
					"source" : [ "obj-5", 4 ]
				}

			}
, 			{
				"patchline" : 				{
					"destination" : [ "obj-41", 0 ],
					"order" : 0,
					"source" : [ "obj-5", 5 ]
				}

			}
, 			{
				"patchline" : 				{
					"destination" : [ "obj-6", 1 ],
					"order" : 0,
					"source" : [ "obj-5", 0 ]
				}

			}
, 			{
				"patchline" : 				{
					"destination" : [ "obj-7", 1 ],
					"order" : 1,
					"source" : [ "obj-5", 1 ]
				}

			}
, 			{
				"patchline" : 				{
					"destination" : [ "obj-8", 1 ],
					"order" : 1,
					"source" : [ "obj-5", 2 ]
				}

			}
, 			{
				"patchline" : 				{
					"destination" : [ "obj-9", 1 ],
					"order" : 1,
					"source" : [ "obj-5", 3 ]
				}

			}
 ],
		"parameters" : 		{
			"obj-12" : [ "live.gain~[4]", "live.gain~[3]", 0 ],
			"obj-2" : [ "rnbo~", "rnbo~", 0 ],
			"obj-4" : [ "live.gain~[3]", "live.gain~[3]", 0 ],
			"obj-46" : [ "rnbo~[1]", "rnbo~[1]", 0 ],
			"parameterbanks" : 			{
				"0" : 				{
					"index" : 0,
					"name" : "",
					"parameters" : [ "-", "-", "-", "-", "-", "-", "-", "-" ]
				}

			}
,
			"inherited_shortname" : 1
		}
,
		"dependency_cache" : [ 			{
				"name" : "inportpatch.maxsnap",
				"bootpath" : "~/Desktop/rnbo.example.webpage-2/maxproject/gyroosc/data",
				"patcherrelativepath" : "../data",
				"type" : "mx@s",
				"implicit" : 1
			}
, 			{
				"name" : "untitled_20221130.maxsnap",
				"bootpath" : "~/Desktop/rnbo.example.webpage-2/maxproject/gyroosc/data",
				"patcherrelativepath" : "../data",
				"type" : "mx@s",
				"implicit" : 1
			}
 ],
		"autosave" : 0
	}

}
